<svg width="59" height="22" viewBox="0 0 59 22" fill="none" xmlns="http://www.w3.org/2000/svg">
<path d="M51.5269 22C53.5427 22 55.2095 21.3364 56.5275 20.0093C57.8455 18.6822 58.5045 16.9679 58.5045 14.8667V6.85628C58.5045 6.03051 57.8351 5.36108 57.0093 5.36108C56.1835 5.36108 55.5141 6.03051 55.5141 6.85628V14.8667C55.5141 16.0943 55.1209 17.1145 54.3346 17.9273C53.5482 18.7402 52.6123 19.1467 51.5269 19.1467C50.4415 19.1467 49.5056 18.7402 48.7193 17.9273C47.9329 17.1145 47.5397 16.0943 47.5397 14.8667V6.85628C47.5397 6.03051 46.8703 5.36108 46.0445 5.36108C45.2187 5.36108 44.5493 6.03051 44.5493 6.85628V14.8667C44.5493 16.9679 45.2083 18.6822 46.5263 20.0093C47.8443 21.3364 49.5112 22 51.5269 22Z" fill="#1A1A1A"/>
<path fill-rule="evenodd" clip-rule="evenodd" d="M0.00686417 1.32848C0.00686417 0.594782 0.601645 0 1.33535 0C2.06904 0 2.66383 0.594781 2.66383 1.32848V13.5919C2.90196 16.6702 5.48342 19.1037 8.62879 19.1037C11.931 19.1037 14.6175 16.4232 14.6175 13.1283C14.6175 9.83345 11.931 7.1529 8.62879 7.1529C8.37218 7.1529 8.11503 7.1687 7.86528 7.20084C7.14402 7.29304 6.48136 6.78095 6.38949 6.0597C6.29761 5.33846 6.80978 4.67886 7.53316 4.58719C7.89274 4.54188 8.26129 4.5187 8.62879 4.5187C13.3867 4.5187 17.2576 8.38096 17.2576 13.1283C17.2576 17.8757 13.3867 21.7379 8.62879 21.7379C5.42111 21.7379 2.62211 19.9788 1.13523 17.3799C0.437723 16.1608 0.0300967 14.7589 0.00686417 13.2626C0.00633616 13.2173 0 13.1736 0 13.1283C0 13.1051 0.00580814 13.0835 0.00686417 13.0603V1.32848Z" fill="#1A1A1A"/>
<path fill-rule="evenodd" clip-rule="evenodd" d="M42.209 1.32848C42.209 0.594782 41.6142 0 40.8805 0C40.1468 0 39.552 0.594781 39.552 1.32848V13.5919C39.3139 16.6702 36.7324 19.1037 33.587 19.1037C30.2848 19.1037 27.5983 16.4232 27.5983 13.1283C27.5983 9.83345 30.2848 7.1529 33.587 7.1529C33.8436 7.1529 34.1008 7.1687 34.3505 7.20084C35.0718 7.29304 35.7345 6.78095 35.8263 6.0597C35.9182 5.33846 35.406 4.67886 34.6827 4.58719C34.3231 4.54188 33.9545 4.5187 33.587 4.5187C28.8291 4.5187 24.9582 8.38096 24.9582 13.1283C24.9582 17.8757 28.8291 21.7379 33.587 21.7379C36.7947 21.7379 39.5937 19.9788 41.0806 17.3799C41.7781 16.1608 42.1857 14.7589 42.209 13.2626C42.2095 13.2173 42.2158 13.1736 42.2158 13.1283C42.2158 13.1051 42.21 13.0835 42.209 13.0603V1.32848Z" fill="#1A1A1A"/>
<path fill-rule="evenodd" clip-rule="evenodd" d="M22.6053 2.98236C22.2891 3.31999 21.8685 3.4888 21.3433 3.4888C20.8181 3.4888 20.3947 3.32267 20.0731 2.9904C19.7516 2.64742 19.5908 2.23476 19.5908 1.75244C19.5908 1.27012 19.7516 0.857463 20.0731 0.514478C20.3947 0.171493 20.8181 0 21.3433 0C21.8685 0 22.2891 0.171493 22.6053 0.514478C22.9215 0.857463 23.0796 1.27012 23.0796 1.75244C23.0796 2.23476 22.9215 2.64474 22.6053 2.98236ZM22.8112 20.2619C22.8112 21.0771 22.1504 21.7379 21.3352 21.7379C20.52 21.7379 19.8592 21.0771 19.8592 20.2619V6.84343C19.8592 6.02824 20.52 5.3674 21.3352 5.3674C22.1504 5.3674 22.8112 6.02824 22.8112 6.84343V20.2619Z" fill="#1A1A1A"/>
</svg>
