<svg width="26" height="30" viewBox="0 0 26 30" fill="none" xmlns="http://www.w3.org/2000/svg">
<g filter="url(#filter0_d_17_6419)">
<g clip-path="url(#clip0_17_6419)">
<path d="M21.578 15.9901C20.9788 15.0049 20.3795 13.2315 20.3795 10.0788V9.48768C20.3795 5.34975 17.0836 2 12.9888 2C11.99 2 10.9913 2.19704 10.0924 2.59113C9.19351 2.8867 8.29463 3.47783 7.59551 4.16749C6.89638 4.85714 6.397 5.64532 5.9975 6.53202C5.598 7.41872 5.39825 8.40394 5.39825 9.38916V10.1773C5.39825 13.33 4.69913 15.1034 4.19975 16.0887C4.09988 16.2857 4 16.4828 4 16.7783C4 17.0739 4.09988 17.2709 4.19975 17.5665C4.29963 17.7635 4.49938 17.9606 4.69913 18.1576C4.89888 18.2562 5.1985 18.3547 5.49813 18.3547H8.99376C8.99376 19.3399 9.39326 20.2266 10.0924 21.0148C10.7915 21.803 11.6904 22.0985 12.789 22.0985C13.7878 22.0985 14.6866 21.7044 15.4856 21.0148C16.2846 20.3251 16.5843 19.3399 16.5843 18.3547H20.3795C20.6792 18.3547 20.8789 18.2562 21.1785 18.1576C21.3783 18.0591 21.578 17.8621 21.6779 17.5665C21.7778 17.3695 21.8777 17.0739 21.8777 16.7783C21.7778 16.4828 21.6779 16.2857 21.578 15.9901ZM14.2871 19.8325C13.4881 20.6207 11.99 20.6207 11.0911 19.8325C10.6916 19.4384 10.392 18.8473 10.392 18.2562H14.9863C14.9863 18.8473 14.7865 19.4384 14.2871 19.8325ZM5.49813 16.7783C6.09738 15.6946 6.89638 13.6256 6.89638 10.1773V9.38916C6.89638 8.60099 7.09613 7.81281 7.39576 7.12315C7.69538 6.4335 8.09488 5.74384 8.69413 5.15271C9.29338 4.56158 9.89263 4.16749 10.6916 3.87192C11.3908 3.57635 12.1898 3.47783 12.9888 3.47783C16.2846 3.47783 18.8814 6.23645 18.8814 9.48768V10.1773C18.8814 13.7241 19.6804 15.6946 20.2796 16.8768L5.49813 16.7783Z" fill="#1A1A1A"/>
</g>
</g>
<defs>
<filter id="filter0_d_17_6419" x="-3" y="0" width="32" height="32" filterUnits="userSpaceOnUse" color-interpolation-filters="sRGB">
<feFlood flood-opacity="0" result="BackgroundImageFix"/>
<feColorMatrix in="SourceAlpha" type="matrix" values="0 0 0 0 0 0 0 0 0 0 0 0 0 0 0 0 0 0 127 0" result="hardAlpha"/>
<feOffset dy="4"/>
<feGaussianBlur stdDeviation="2"/>
<feComposite in2="hardAlpha" operator="out"/>
<feColorMatrix type="matrix" values="0 0 0 0 0 0 0 0 0 0 0 0 0 0 0 0 0 0 0.25 0"/>
<feBlend mode="normal" in2="BackgroundImageFix" result="effect1_dropShadow_17_6419"/>
<feBlend mode="normal" in="SourceGraphic" in2="effect1_dropShadow_17_6419" result="shape"/>
</filter>
<clipPath id="clip0_17_6419">
<rect width="17.7778" height="20" fill="white" transform="translate(4 2)"/>
</clipPath>
</defs>
</svg>
