<svg width="24" height="24" viewBox="0 0 24 24" fill="none" xmlns="http://www.w3.org/2000/svg">
<g clip-path="url(#clip0_17_6424)">
<path d="M7.27773 16.5666C6.01106 16.5666 4.95551 15.6166 4.84995 14.2444L4.00551 3.68884L2.63328 3.47773C2.21106 3.37217 1.89439 2.94995 1.99995 2.63328C2.10551 2.21106 2.42217 1.89439 2.84439 1.99995L4.84995 2.31662C5.16662 2.42217 5.37773 2.73884 5.37773 3.05551L5.58884 5.79995C19.1 5.79995 19.2055 5.79995 19.3111 5.79995C19.8388 5.90551 20.2611 6.11662 20.5777 6.6444C20.8944 7.06662 21 7.5944 21 8.12217L20.0499 14.4555C19.8388 15.6166 18.8888 16.5666 17.6222 16.5666H7.27773ZM5.6944 7.17217L6.22217 14.1388C6.22217 14.6666 6.74995 15.0888 7.17217 15.0888H17.5166C18.0444 15.0888 18.4666 14.6666 18.4666 14.2444L19.4166 7.91106C19.4166 7.80551 19.4166 7.59439 19.3111 7.48884C19.4166 7.27773 19.2055 7.27773 19.1 7.17217C18.8888 7.17217 10.6555 7.17217 5.6944 7.17217Z" fill="#1A1A1A"/>
<path d="M16.1444 10.7611H13.5055C13.0833 10.7611 12.7666 10.4445 12.7666 10.0222C12.7666 9.60003 13.0833 9.38892 13.5055 9.38892H16.1444C16.5666 9.38892 16.8833 9.70558 16.8833 10.1278C16.8833 10.55 16.5666 10.7611 16.1444 10.7611Z" fill="#1A1A1A"/>
<path d="M6.96109 21.0001C6.2222 21.0001 5.58887 20.3667 5.58887 19.6278C5.58887 18.8889 6.2222 18.2556 6.96109 18.2556C7.69998 18.2556 8.33331 18.8889 8.33331 19.6278C8.33331 20.3667 7.69998 21.0001 6.96109 21.0001Z" fill="#1A1A1A"/>
<path d="M17.5168 21.0001C16.7779 21.0001 16.1445 20.3667 16.1445 19.6278C16.1445 18.8889 16.7779 18.2556 17.5168 18.2556C18.2556 18.2556 18.889 18.8889 18.889 19.6278C18.889 20.3667 18.2556 21.0001 17.5168 21.0001Z" fill="#1A1A1A"/>
</g>
<defs>
<clipPath id="clip0_17_6424">
<rect width="19" height="19" fill="white" transform="translate(2 2)"/>
</clipPath>
</defs>
</svg>
