<svg width="76" height="24" viewBox="0 0 76 24" fill="none" xmlns="http://www.w3.org/2000/svg">
<defs>
<linearGradient id="paint0_linear_5_284" x1="43.6719" y1="7.85937" x2="52.6463" y2="8.43546" gradientUnits="userSpaceOnUse">
<stop stop-color="#FD37AE"/>
<stop offset="1" stop-color="#FD374F"/>
</linearGradient>
<linearGradient id="paint1_linear_5_284" x1="43.6719" y1="7.85937" x2="52.6463" y2="8.43546" gradientUnits="userSpaceOnUse">
<stop stop-color="#FD37AE"/>
<stop offset="1" stop-color="#FD374F"/>
</linearGradient>
<linearGradient id="paint2_linear_5_284" x1="64.9258" y1="11.0625" x2="76.8523" y2="12.3561" gradientUnits="userSpaceOnUse">
<stop stop-color="#FD37AE"/>
<stop offset="1" stop-color="#FD374F"/>
</linearGradient>
<linearGradient id="paint3_linear_5_284" x1="64.9258" y1="11.0625" x2="76.8523" y2="12.3561" gradientUnits="userSpaceOnUse">
<stop stop-color="#FD37AE"/>
<stop offset="1" stop-color="#FD374F"/>
</linearGradient>
<linearGradient id="paint4_linear_5_284" x1="53.5703" y1="11.0625" x2="65.8114" y2="12.4261" gradientUnits="userSpaceOnUse">
<stop stop-color="#FD37AE"/>
<stop offset="1" stop-color="#FD374F"/>
</linearGradient>
<linearGradient id="paint5_linear_5_284" x1="53.5703" y1="11.0625" x2="65.8114" y2="12.4261" gradientUnits="userSpaceOnUse">
<stop stop-color="#FD37AE"/>
<stop offset="1" stop-color="#FD374F"/>
</linearGradient>
<linearGradient id="paint6_linear_5_284" x1="46.2109" y1="0" x2="56.8522" y2="1.27897" gradientUnits="userSpaceOnUse">
<stop stop-color="#FD37AE"/>
<stop offset="1" stop-color="#FD374F"/>
</linearGradient>
</defs>
<path d="M43.9342 21.2451L43.9346 21.2459C44.1769 21.7872 44.5165 22.2195 44.9542 22.5394C45.3944 22.861 45.8997 23.0215 46.4664 23.0215H46.5036C46.8925 23.0215 47.2197 22.9274 47.4771 22.731C47.7365 22.5332 47.8705 22.273 47.8705 21.9572C47.8705 21.6549 47.7838 21.3988 47.604 21.1976C47.4348 20.9941 47.2075 20.8929 46.9321 20.8929H46.4664C46.2401 20.8929 46.045 20.7688 45.8828 20.481C45.7198 20.1916 45.6349 19.8178 45.6349 19.3536V8.82366C45.6349 8.51854 45.5403 8.26102 45.346 8.0599C45.1514 7.85849 44.901 7.75937 44.6034 7.75937C44.3058 7.75937 44.0553 7.85849 43.8608 8.0599C43.6665 8.26102 43.5719 8.51854 43.5719 8.82366V19.3536C43.5719 20.0593 43.6918 20.6904 43.9342 21.2451ZM50.0027 22.7184L50.0025 22.7186L50.0075 22.7234C50.2135 22.9225 50.4687 23.0215 50.7663 23.0215C51.0748 23.0215 51.332 22.9233 51.5275 22.721L51.5275 22.721L51.5298 22.7184C51.7218 22.5055 51.8164 22.2431 51.8164 21.9379V12.0809C51.8164 11.7643 51.7226 11.4998 51.5275 11.2978C51.332 11.0955 51.0748 10.9973 50.7663 10.9973C50.4687 10.9973 50.2135 11.0963 50.0075 11.2954L50.0074 11.2954L50.005 11.2978C49.8099 11.4998 49.7161 11.7643 49.7161 12.0809V21.9379C49.7161 22.2431 49.8107 22.5055 50.0027 22.7184Z" fill="url(#paint0_linear_5_284)" stroke="url(#paint1_linear_5_284)" stroke-width="0.2"/>
<path d="M67.7189 22.3328L67.7189 22.3328L67.7206 22.3338C68.6365 22.8448 69.6776 23.0992 70.8411 23.0992C71.4905 23.0992 72.1658 22.9749 72.8667 22.728C73.5807 22.4813 74.1795 22.1609 74.6607 21.765C74.9162 21.5623 75.0457 21.3109 75.0298 21.0152C75.0143 20.7251 74.8737 20.4654 74.6239 20.237L74.6239 20.2369L74.6223 20.2356C74.4225 20.0603 74.1829 19.9806 73.9101 19.9957C73.6517 19.9963 73.4104 20.0838 73.1883 20.2526L73.1874 20.2533C72.9212 20.4602 72.5645 20.6494 72.1143 20.8191C71.6816 20.9731 71.2573 21.0496 70.8411 21.0496C69.811 21.0496 68.9422 20.7483 68.2288 20.1489C67.5563 19.5589 67.1381 18.8089 66.9741 17.8944H74.7432C75.0425 17.8944 75.2966 17.8005 75.4972 17.6085L75.4973 17.6086L75.5001 17.6057C75.6989 17.3996 75.7979 17.1449 75.7979 16.848C75.7979 15.7034 75.5882 14.6918 75.1657 13.8159C74.7569 12.9252 74.1565 12.2292 73.3648 11.731C72.5713 11.2172 71.6248 10.9625 70.5298 10.9625C69.4205 10.9625 68.4336 11.2246 67.5724 11.7511C66.7122 12.2627 66.0357 12.9788 65.5433 13.8973L65.5431 13.8977C65.0638 14.8034 64.8258 15.8523 64.8258 17.0416C64.8258 18.2177 65.0781 19.2671 65.5854 20.187L65.5854 20.187L65.5863 20.1886C66.107 21.0927 66.8183 21.8079 67.7189 22.3328ZM72.6978 13.8831L72.6978 13.8831L72.6986 13.884C73.213 14.4304 73.5387 15.1253 73.6727 15.9738H66.9976C67.1717 15.1144 67.5493 14.4135 68.1285 13.8667C68.7291 13.2997 69.5261 13.0122 70.5298 13.0122C71.4474 13.0122 72.1661 13.3047 72.6978 13.8831Z" fill="url(#paint2_linear_5_284)" stroke="url(#paint3_linear_5_284)" stroke-width="0.2"/>
<path d="M58.0245 22.317L58.0245 22.317L58.0259 22.3199C58.2757 22.8265 58.6413 23.0992 59.1229 23.0992C59.3596 23.0992 59.57 23.0329 59.7496 22.8983C59.9278 22.7647 60.07 22.5682 60.1797 22.3163C60.1798 22.316 60.1799 22.3158 60.1801 22.3155L64.6287 12.5159L64.6288 12.5156C64.7507 12.2451 64.7668 11.9705 64.6744 11.6971C64.5812 11.4213 64.3936 11.2185 64.1192 11.0907C63.8317 10.9488 63.5391 10.9238 63.2471 11.0202L63.2471 11.0201L63.2455 11.0207C62.9681 11.1173 62.7596 11.3038 62.6226 11.5742L62.6224 11.5742L62.6202 11.5792L59.1014 19.5943L55.5416 11.5788L55.5417 11.5788L55.5394 11.5742C55.4025 11.3041 55.1943 11.1177 54.9173 11.021C54.6509 10.9231 54.3839 10.9489 54.1236 11.0923C53.8392 11.2335 53.6391 11.4408 53.5312 11.7143L53.5312 11.7143L53.5302 11.7172C53.4366 11.9779 53.4536 12.246 53.5751 12.5156L53.5751 12.5156L53.5752 12.5159L58.0245 22.317Z" fill="url(#paint4_linear_5_284)" stroke="url(#paint5_linear_5_284)" stroke-width="0.2"/>
<path fill-rule="evenodd" clip-rule="evenodd" d="M51.0293 9.63675C53.6904 9.63675 55.8477 7.47949 55.8477 4.81837C55.8477 2.15726 53.6904 0 51.0293 0C48.3682 0 46.2109 2.15726 46.2109 4.81837C46.2109 7.47949 48.3682 9.63675 51.0293 9.63675ZM49.4229 3.13917C49.4229 2.68406 49.7431 2.49848 50.138 2.72501L53.0735 4.40849C53.4685 4.63504 53.4685 5.00218 53.0735 5.22879L50.138 6.91229C49.7431 7.13861 49.4229 6.95327 49.4229 6.4977V3.13917Z" fill="url(#paint6_linear_5_284)"/>
<path d="M35.6429 23.0015C37.0372 23.0015 38.1902 22.5425 39.1019 21.6245C40.0136 20.7066 40.4694 19.5208 40.4694 18.0673V12.5264C40.4694 11.9552 40.0064 11.4922 39.4352 11.4922V11.4922C38.864 11.4922 38.4009 11.9552 38.4009 12.5264V18.0673C38.4009 18.9165 38.1289 19.6222 37.585 20.1844C37.0411 20.7467 36.3937 21.0278 35.6429 21.0278C34.8921 21.0278 34.2448 20.7467 33.7008 20.1844C33.1569 19.6222 32.8849 18.9165 32.8849 18.0673V12.5264C32.8849 11.9552 32.4219 11.4922 31.8507 11.4922V11.4922C31.2795 11.4922 30.8164 11.9552 30.8164 12.5264V18.0673C30.8164 19.5208 31.2722 20.7066 32.1839 21.6245C33.0956 22.5425 34.2486 23.0015 35.6429 23.0015Z" fill="#191919"/>
<path fill-rule="evenodd" clip-rule="evenodd" d="M0.00474804 8.70018C0.00474804 8.19267 0.416166 7.78125 0.923676 7.78125V7.78125C1.43119 7.78125 1.8426 8.19267 1.8426 8.70018V17.183C2.00732 19.3123 3.79295 20.9955 5.96865 20.9955C8.25282 20.9955 10.1111 19.1414 10.1111 16.8623C10.1111 14.5832 8.25282 12.729 5.96865 12.729C5.79115 12.729 5.61328 12.7399 5.44052 12.7622C4.94161 12.8259 4.48324 12.4717 4.41969 11.9728C4.35614 11.4739 4.71042 11.0177 5.21079 10.9543C5.45951 10.9229 5.71445 10.9069 5.96865 10.9069C9.25977 10.9069 11.9373 13.5785 11.9373 16.8623C11.9373 20.1461 9.25977 22.8177 5.96865 22.8177C3.74986 22.8177 1.81375 21.6009 0.785253 19.8032C0.302779 18.9599 0.0208183 17.9902 0.00474804 16.9552C0.00438281 16.9239 0 16.8936 0 16.8623C0 16.8462 0.00401757 16.8313 0.00474804 16.8153V8.70018Z" fill="#191919"/>
<path fill-rule="evenodd" clip-rule="evenodd" d="M29.1984 8.70018C29.1984 8.19267 28.787 7.78125 28.2794 7.78125V7.78125C27.7719 7.78125 27.3605 8.19267 27.3605 8.70018V17.183C27.1958 19.3123 25.4102 20.9955 23.2345 20.9955C20.9503 20.9955 19.092 19.1414 19.092 16.8623C19.092 14.5832 20.9503 12.729 23.2345 12.729C23.412 12.729 23.5898 12.7399 23.7626 12.7622C24.2615 12.8259 24.7199 12.4717 24.7834 11.9728C24.847 11.4739 24.4927 11.0177 23.9923 10.9543C23.7436 10.9229 23.4887 10.9069 23.2345 10.9069C19.9434 10.9069 17.2658 13.5785 17.2658 16.8623C17.2658 20.1461 19.9434 22.8177 23.2345 22.8177C25.4533 22.8177 27.3894 21.6009 28.4179 19.8032C28.9003 18.9599 29.1823 17.9902 29.1984 16.9552C29.1987 16.9239 29.2031 16.8936 29.2031 16.8623C29.2031 16.8462 29.1991 16.8313 29.1984 16.8153V8.70018Z" fill="#191919"/>
<path fill-rule="evenodd" clip-rule="evenodd" d="M15.636 9.84419C15.4173 10.0777 15.1263 10.1945 14.763 10.1945C14.3997 10.1945 14.1068 10.0796 13.8844 9.84975C13.662 9.6125 13.5508 9.32706 13.5508 8.99344C13.5508 8.65981 13.662 8.37437 13.8844 8.13712C14.1068 7.89987 14.3997 7.78125 14.763 7.78125C15.1263 7.78125 15.4173 7.89987 15.636 8.13712C15.8547 8.37437 15.964 8.65981 15.964 8.99344C15.964 9.32706 15.8547 9.61065 15.636 9.84419ZM15.778 21.7968C15.778 22.3606 15.3209 22.8178 14.757 22.8178C14.1931 22.8178 13.736 22.3606 13.736 21.7968V12.515C13.736 11.9512 14.1931 11.494 14.757 11.494C15.3209 11.494 15.778 11.9512 15.778 12.515V21.7968Z" fill="#191919"/>
</svg>
