<svg width="20" height="20" viewBox="0 0 20 20" fill="none" xmlns="http://www.w3.org/2000/svg">
<path d="M10.2505 4.42409L10.4849 4.33701C10.8911 4.18607 11.1821 3.79107 11.1821 3.32633C11.1821 2.72973 10.7035 2.25 10.1179 2.25C9.53221 2.25 9.05357 2.72973 9.05357 3.32633C9.05357 3.78502 9.33707 4.1758 9.7351 4.33102L9.96695 4.42143L9.87761 4.65369C9.03647 6.84038 8.02297 7.96035 6.94775 8.37449C5.86779 8.79044 4.80399 8.46504 3.93558 7.94901L3.93343 7.94776L3.93344 7.94774L3.93216 7.94698C3.60459 7.75219 3.33576 7.59233 3.11741 7.46691L2.83505 7.30471L3.06467 7.07383C3.25858 6.87886 3.37857 6.6093 3.37857 6.31056C3.37857 5.71397 2.89993 5.23423 2.31429 5.23423C1.72864 5.23423 1.25 5.71397 1.25 6.31056C1.25 6.87927 1.68528 7.34216 2.2331 7.38381L2.42512 7.39841L2.46001 7.58781C2.5057 7.83588 2.58395 8.18129 2.68958 8.64722L2.44577 8.7025L2.68959 8.64722L4.18098 15.2258C4.22712 15.4293 4.23853 15.4583 4.25062 15.4753L4.04681 15.6201L4.25062 15.4753C4.2682 15.5001 4.29201 15.5191 4.31921 15.5306C4.31921 15.5306 4.31922 15.5306 4.31922 15.5306M10.2505 4.42409L15.7656 15.7629C15.6916 15.7931 15.6035 15.7931 15.4273 15.7931H4.57376C4.38991 15.7931 4.29799 15.7931 4.22179 15.7609L4.31922 15.5306M10.2505 4.42409L10.3376 4.65846C10.7309 5.71636 11.4275 7.1188 12.5402 7.88688C13.1045 8.27647 13.7771 8.50345 14.5615 8.43684C15.3415 8.37061 16.2086 8.01621 17.1714 7.28691L17.3657 7.13981L17.2236 6.94187C17.0965 6.76471 17.0214 6.54695 17.0214 6.31056C17.0214 5.71397 17.5001 5.23423 18.0857 5.23423C18.6714 5.23423 19.15 5.71397 19.15 6.31056C19.15 6.90329 18.6775 7.38073 18.0971 7.38683L17.9049 7.38885L17.8574 7.57511C17.2478 9.96848 16.184 13.8895 15.8142 15.2474C15.7626 15.437 15.751 15.4632 15.7387 15.4794C15.721 15.5027 15.6976 15.5206 15.6712 15.5314L10.2505 4.42409ZM4.31922 15.5306C4.3224 15.532 4.33436 15.5367 4.37551 15.5397C4.41986 15.543 4.47824 15.5431 4.57376 15.5431H15.4273C15.6257 15.5431 15.6535 15.5386 15.6712 15.5314L4.31922 15.5306Z" fill="#FBD079" stroke="#1A1A1A" stroke-width="0.5"/>
<rect x="3.94922" y="15.25" width="12" height="1.7" rx="0.85" fill="#FBD079" stroke="#1A1A1A" stroke-width="0.5"/>
<path d="M10 10L11.5608 12.0002L10 14L8.43923 12.0002L10 10Z" fill="#ABEBFF" stroke="#1A1A1A" stroke-width="0.5"/>
</svg>
