<svg width="32" height="32" viewBox="0 0 32 32" fill="none" xmlns="http://www.w3.org/2000/svg">
<path d="M16.0003 31.6803C24.6601 31.6803 31.6803 24.6601 31.6803 16.0003C31.6803 7.34049 24.6601 0.320312 16.0003 0.320312C7.34049 0.320312 0.320312 7.34049 0.320312 16.0003C0.320312 24.6601 7.34049 31.6803 16.0003 31.6803Z" fill="#FFF4F7" stroke="black" stroke-width="0.5" stroke-miterlimit="10" stroke-linecap="round" stroke-linejoin="round"/>
<path d="M9.12016 17.9591C10.2026 17.9591 11.0802 17.0815 11.0802 15.9991C11.0802 14.9166 10.2026 14.0391 9.12016 14.0391C8.03768 14.0391 7.16016 14.9166 7.16016 15.9991C7.16016 17.0815 8.03768 17.9591 9.12016 17.9591Z" fill="#FF9EB8" stroke="#020202" stroke-width="0.5" stroke-miterlimit="10"/>
<path d="M15.9991 17.9591C17.0815 17.9591 17.9591 17.0815 17.9591 15.9991C17.9591 14.9166 17.0815 14.0391 15.9991 14.0391C14.9166 14.0391 14.0391 14.9166 14.0391 15.9991C14.0391 17.0815 14.9166 17.9591 15.9991 17.9591Z" fill="#FF9EB8" stroke="#020202" stroke-width="0.5" stroke-miterlimit="10"/>
<path d="M22.8819 17.9591C23.9644 17.9591 24.8419 17.0815 24.8419 15.9991C24.8419 14.9166 23.9644 14.0391 22.8819 14.0391C21.7994 14.0391 20.9219 14.9166 20.9219 15.9991C20.9219 17.0815 21.7994 17.9591 22.8819 17.9591Z" fill="#FF9EB8" stroke="#020202" stroke-width="0.5" stroke-miterlimit="10"/>
</svg>
