<svg width="20" height="27" viewBox="0 0 20 27" fill="none" xmlns="http://www.w3.org/2000/svg">
<defs>
<filter id="filter0_d_167_1261" x="0.644531" y="0.308594" width="19.2734" height="26.3555" filterUnits="userSpaceOnUse" color-interpolation-filters="sRGB">
<feFlood flood-opacity="0" result="BackgroundImageFix"/>
<feColorMatrix in="SourceAlpha" type="matrix" values="0 0 0 0 0 0 0 0 0 0 0 0 0 0 0 0 0 0 127 0" result="hardAlpha"/>
<feOffset dy="1"/>
<feGaussianBlur stdDeviation="1.5"/>
<feComposite in2="hardAlpha" operator="out"/>
<feColorMatrix type="matrix" values="0 0 0 0 0 0 0 0 0 0 0 0 0 0 0 0 0 0 0.25 0"/>
<feBlend mode="normal" in2="BackgroundImageFix" result="effect1_dropShadow_167_1261"/>
<feBlend mode="normal" in="SourceGraphic" in2="effect1_dropShadow_167_1261" result="shape"/>
</filter>
</defs>
<g filter="url(#filter0_d_167_1261)">
<path d="M4.28583 22.1315L4.27872 22.1273L4.27148 22.1232C4.20259 22.0848 4.14453 21.9974 4.14453 21.8935V3.59031C4.14453 3.14762 4.48442 2.80859 4.92331 2.80859H15.6648C16.1072 2.80859 16.4335 3.14693 16.4183 3.57248L16.418 3.58139V3.59031V21.8678C16.418 21.9718 16.3599 22.0592 16.2911 22.0975L16.2911 22.0976C16.2133 22.1409 16.1085 22.1355 16.045 22.093L16.0369 22.0877L16.0286 22.0826L10.5556 18.7244L10.2921 18.5628L10.0297 18.7262L4.56137 22.1327C4.55107 22.1386 4.53296 22.1464 4.50537 22.1526C4.47624 22.1593 4.44361 22.1626 4.41181 22.1626C4.38152 22.1626 4.3592 22.1596 4.34154 22.1551C4.32458 22.1509 4.30663 22.144 4.28583 22.1315Z" stroke="white" shape-rendering="crispEdges"/>
</g>
</svg>
