<svg width="20" height="20" viewBox="0 0 20 20" fill="none" xmlns="http://www.w3.org/2000/svg">
<path d="M5.41895 7.60486C5.41895 7.60486 2.90336 6.77593 1.50749 8.21417C0.277215 9.48178 1.2835 12.6814 4.52967 16.3281H8.64172" fill="#ECAEA6"/>
<path d="M5.41895 7.60486C5.41895 7.60486 2.90336 6.77593 1.50749 8.21417C0.277215 9.48178 1.2835 12.6814 4.52967 16.3281H8.64172" stroke="#1A1A1A" stroke-width="0.5" stroke-miterlimit="10"/>
<path d="M14.7306 7.60486C14.7306 7.60486 17.3983 6.77593 18.642 8.21417C19.8723 9.48178 18.866 12.6814 15.6199 16.3281H11.5078" fill="#ECAEA6"/>
<path d="M14.7306 7.60486C14.7306 7.60486 17.3983 6.77593 18.642 8.21417C19.8723 9.48178 18.866 12.6814 15.6199 16.3281H11.5078" stroke="#1A1A1A" stroke-width="0.5" stroke-miterlimit="10"/>
<path d="M15.0041 8.21433C14.8452 6.49035 13.0948 5.19966 10.0739 6.13335C7.05297 5.19966 5.30258 6.49341 5.14377 8.21433C4.98495 9.93525 7.56344 16.3277 7.56344 16.3277H10.0739H12.5844C12.5844 16.3246 15.1629 9.93525 15.0041 8.21433Z" fill="#FFCFC9" stroke="#1A1A1A" stroke-width="0.5" stroke-miterlimit="10"/>
<path d="M10.5728 3.486L11.8267 4.06963L10.5728 4.65327L10.0754 6.13927L9.5816 4.65327L8.32422 4.06963L9.5816 3.486L10.0754 2L10.5728 3.486Z" fill="#ECAEA6" stroke="#1A1A1A" stroke-width="0.5" stroke-miterlimit="10" stroke-linecap="round" stroke-linejoin="round"/>
<path d="M15.3906 18.0003H4.44282C3.9466 18.0003 3.54688 17.604 3.54688 17.1196V16.9705C3.54688 16.4828 3.95005 16.0898 4.44282 16.0898H15.3871C15.8833 16.0898 16.2831 16.4862 16.2831 16.9705V17.1196C16.2865 17.604 15.8833 18.0003 15.3906 18.0003Z" fill="#FFCFC9" stroke="#1A1A1A" stroke-width="0.5" stroke-miterlimit="10" stroke-linecap="round" stroke-linejoin="round"/>
</svg>
