<svg width="20" height="20" viewBox="0 0 20 20" fill="none" xmlns="http://www.w3.org/2000/svg">
<path d="M15.6155 3.25H4.09498L1.21484 7.21019L9.85525 17.6507L18.4957 7.21019L15.6155 3.25Z" fill="#ABEBFF"/>
<path d="M14.1757 7.21019L10.2155 3.61002L9.85547 3.25H15.6157L14.1757 7.21019Z" fill="#80CBFF"/>
<path d="M10.214 3.25L5.89383 7.21019L4.09375 3.25H10.214Z" fill="#80CBFF"/>
<path fill-rule="evenodd" clip-rule="evenodd" d="M3.70194 3.17099C3.77588 3.06392 3.8977 3 4.02782 3H15.5452C15.6692 3 15.7861 3.05809 15.8609 3.15696L18.6301 6.8142C18.7396 6.95885 18.7369 7.15942 18.6234 7.30098L10.1647 17.8517C10.0069 18.0485 9.70774 18.0496 9.54852 17.8539L1.08884 7.45715C0.97772 7.32058 0.970103 7.12705 1.07015 6.98217L3.70194 3.17099ZM4.08449 3.50402L1.53094 7.20189L9.85508 17.4321L18.1775 7.05137L15.4915 3.50402H4.08449Z" fill="#1A1A1A"/>
<path d="M6.25781 7.57422L9.85798 17.6547L13.8182 7.57422H6.25781Z" fill="#80CBFF"/>
<path fill-rule="evenodd" clip-rule="evenodd" d="M18.2288 7.60807L1.21748 7.60808L1.21748 7.10405L18.2288 7.10405L18.2288 7.60807Z" fill="#1A1A1A"/>
<path fill-rule="evenodd" clip-rule="evenodd" d="M9.99971 3.74865L6.28024 7.11123C6.08334 7.28923 5.77051 7.22694 5.65681 6.9871L4.01172 3.51687L4.46716 3.30097L6.05001 6.6399L9.73413 3.30928C9.88494 3.17295 10.1145 3.17295 10.2653 3.30928L13.9311 6.62338L15.2376 3.31632L15.7064 3.50151L14.3426 6.95352C14.241 7.21069 13.9139 7.28722 13.7087 7.10179L9.99971 3.74865Z" fill="#1A1A1A"/>
<path fill-rule="evenodd" clip-rule="evenodd" d="M14.1228 7.46529L10.2298 17.3906C10.0965 17.7303 9.61385 17.7243 9.48899 17.3815L5.875 7.45952L6.34859 7.28702L9.86483 16.9407L13.6535 7.28125L14.1228 7.46529Z" fill="#1A1A1A"/>
</svg>
