<svg width="15" height="16" viewBox="0 0 15 16" fill="none" xmlns="http://www.w3.org/2000/svg">
<defs>
<linearGradient id="paint0_linear_167_2196" x1="-1.6437" y1="7.95486" x2="15.3735" y2="7.95486" gradientUnits="userSpaceOnUse">
<stop stop-color="#FF7C79"/>
<stop offset="1" stop-color="#E812A4"/>
</linearGradient>
<clipPath id="clip0_167_2196">
<rect width="14.3099" height="14.2866" fill="white" transform="translate(0 0.941406)"/>
</clipPath>
</defs>
<g clip-path="url(#clip0_167_2196)">
<path d="M10.5088 1.77734C9.73232 1.77734 9.0204 2.02301 8.39289 2.50752C7.79129 2.97204 7.39075 3.56368 7.15495 3.99389C6.91914 3.56365 6.5186 2.97204 5.917 2.50752C5.28949 2.02301 4.57757 1.77734 3.80107 1.77734C1.63412 1.77734 0 3.54691 0 5.89351C0 8.42867 2.03869 10.1632 5.12498 12.789C5.64908 13.2349 6.24314 13.7404 6.86059 14.2794C6.94198 14.3506 7.04651 14.3898 7.15495 14.3898C7.26339 14.3898 7.36792 14.3506 7.44931 14.2795C8.06681 13.7403 8.66084 13.2349 9.18525 12.7887C12.2712 10.1632 14.3099 8.42867 14.3099 5.89351C14.3099 3.54691 12.6758 1.77734 10.5088 1.77734Z" fill="url(#paint0_linear_167_2196)"/>
</g>
</svg>
