<svg width="26" height="26" viewBox="0 0 26 26" fill="none" xmlns="http://www.w3.org/2000/svg">
<defs>
<filter id="filter0_d_8439_2907" x="0.25" y="0.25" width="25.5" height="25.5" filterUnits="userSpaceOnUse" color-interpolation-filters="sRGB">
<feFlood flood-opacity="0" result="BackgroundImageFix"/>
<feColorMatrix in="SourceAlpha" type="matrix" values="0 0 0 0 0 0 0 0 0 0 0 0 0 0 0 0 0 0 127 0" result="hardAlpha"/>
<feOffset/>
<feGaussianBlur stdDeviation="1"/>
<feColorMatrix type="matrix" values="0 0 0 0 0 0 0 0 0 0 0 0 0 0 0 0 0 0 0.5 0"/>
<feBlend mode="normal" in2="BackgroundImageFix" result="effect1_dropShadow_8439_2907"/>
<feBlend mode="normal" in="SourceGraphic" in2="effect1_dropShadow_8439_2907" result="shape"/>
</filter>
<filter id="filter1_d_8439_2907" x="3.91797" y="3.91797" width="18.168" height="18.168" filterUnits="userSpaceOnUse" color-interpolation-filters="sRGB">
<feFlood flood-opacity="0" result="BackgroundImageFix"/>
<feColorMatrix in="SourceAlpha" type="matrix" values="0 0 0 0 0 0 0 0 0 0 0 0 0 0 0 0 0 0 127 0" result="hardAlpha"/>
<feOffset/>
<feGaussianBlur stdDeviation="1"/>
<feColorMatrix type="matrix" values="0 0 0 0 0 0 0 0 0 0 0 0 0 0 0 0 0 0 0.5 0"/>
<feBlend mode="normal" in2="BackgroundImageFix" result="effect1_dropShadow_8439_2907"/>
<feBlend mode="normal" in="SourceGraphic" in2="effect1_dropShadow_8439_2907" result="shape"/>
</filter>
</defs>
<g filter="url(#filter0_d_8439_2907)">
<path d="M8.22222 23.7501C8.63644 23.7501 8.97222 23.4143 8.97222 23.0001C8.97222 22.5858 8.63644 22.2501 8.22222 22.2501V23.7501ZM3.75 17.7778C3.75 17.3636 3.41421 17.0278 3 17.0278C2.58579 17.0278 2.25 17.3636 2.25 17.7778H3.75ZM23.7501 17.7778C23.7501 17.3636 23.4143 17.0278 23.0001 17.0278C22.5858 17.0278 22.2501 17.3636 22.2501 17.7778H23.7501ZM17.7778 22.2501C17.3636 22.2501 17.0278 22.5858 17.0278 23.0001C17.0278 23.4143 17.3636 23.7501 17.7778 23.7501V22.2501ZM17.7778 2.25C17.3636 2.25 17.0278 2.58579 17.0278 3C17.0278 3.41421 17.3636 3.75 17.7778 3.75V2.25ZM22.2501 8.22222C22.2501 8.63644 22.5858 8.97222 23.0001 8.97222C23.4143 8.97222 23.7501 8.63644 23.7501 8.22222H22.2501ZM2.25 8.22222C2.25 8.63644 2.58579 8.97222 3 8.97222C3.41421 8.97222 3.75 8.63644 3.75 8.22222H2.25ZM8.22222 3.75C8.63644 3.75 8.97222 3.41421 8.97222 3C8.97222 2.58579 8.63644 2.25 8.22222 2.25V3.75ZM8.22222 22.2501H6V23.7501H8.22222V22.2501ZM3.75 20.0001V17.7778H2.25V20.0001H3.75ZM6 22.2501C4.75736 22.2501 3.75 21.2427 3.75 20.0001H2.25C2.25 22.0711 3.92893 23.7501 6 23.7501V22.2501ZM22.2501 17.7778V20.0001H23.7501V17.7778H22.2501ZM20.0001 22.2501H17.7778V23.7501H20.0001V22.2501ZM22.2501 20.0001C22.2501 21.2427 21.2427 22.2501 20.0001 22.2501V23.7501C22.0711 23.7501 23.7501 22.0711 23.7501 20.0001H22.2501ZM17.7778 3.75H20.0001V2.25H17.7778V3.75ZM22.2501 6V8.22222H23.7501V6H22.2501ZM20.0001 3.75C21.2427 3.75 22.2501 4.75736 22.2501 6H23.7501C23.7501 3.92893 22.0711 2.25 20.0001 2.25V3.75ZM3.75 8.22222V6H2.25V8.22222H3.75ZM6 3.75H8.22222V2.25H6V3.75ZM3.75 6C3.75 4.75736 4.75736 3.75 6 3.75V2.25C3.92893 2.25 2.25 3.92893 2.25 6H3.75Z" fill="white"/>
</g>
<g filter="url(#filter1_d_8439_2907)">
<path fill-rule="evenodd" clip-rule="evenodd" d="M6.66797 8.66797C6.66797 7.5634 7.5634 6.66797 8.66797 6.66797H17.3346C18.4392 6.66797 19.3346 7.5634 19.3346 8.66797V17.3346C19.3346 18.4392 18.4392 19.3346 17.3346 19.3346H8.66797C7.5634 19.3346 6.66797 18.4392 6.66797 17.3346V8.66797Z" stroke="white" stroke-width="1.5" stroke-linecap="round" stroke-linejoin="round"/>
</g>
</svg>
