<svg width="24" height="24" viewBox="0 0 24 24" fill="none" xmlns="http://www.w3.org/2000/svg">
<path fill-rule="evenodd" clip-rule="evenodd" d="M13.5289 3.55558C11.4717 3.42685 9.43815 4.05355 7.81026 5.31802C6.18236 6.58249 5.07206 8.39775 4.68785 10.4229C4.30445 12.4438 4.67037 14.5349 5.71689 16.3054C5.82759 16.4851 5.86263 16.7075 5.80173 16.9206L4.89048 20.11L8.07985 19.1988C8.28982 19.1388 8.5127 19.1713 8.69462 19.2833C10.4652 20.3301 12.5566 20.6961 14.5776 20.3126C16.6028 19.9284 18.418 18.8181 19.6825 17.1902C20.947 15.5623 21.5736 13.5288 21.4449 11.4715C21.3162 9.41426 20.4408 7.47475 18.9833 6.0172C17.5257 4.55965 15.5862 3.68432 13.5289 3.55558ZM8.19121 20.7676C10.2225 21.8818 12.5814 22.2579 14.8645 21.8247C17.258 21.3706 19.4035 20.0583 20.898 18.1343C22.3924 16.2103 23.1331 13.8069 22.9809 11.3754C22.8288 8.94391 21.7942 6.6516 20.0715 4.92892C18.3488 3.20624 16.0565 2.17169 13.625 2.01953C11.1936 1.86738 8.79016 2.60808 6.86615 4.10256C4.94214 5.59704 3.62987 7.74249 3.17576 10.136C2.74263 12.4191 3.11865 14.778 4.23291 16.8093L3.41065 19.6872C3.33524 19.9511 3.33179 20.2304 3.40063 20.4961C3.46948 20.7617 3.60813 21.0042 3.80221 21.1983C3.99629 21.3924 4.23874 21.531 4.50443 21.5998C4.77012 21.6687 5.04939 21.6652 5.3133 21.5898L8.19121 20.7676Z" fill="#1A1A1A"/>
<path d="M13.2637 13.4391C13.9177 13.4391 14.4479 12.9089 14.4479 12.2549C14.4479 11.6009 13.9177 11.0707 13.2637 11.0707C12.6097 11.0707 12.0795 11.6009 12.0795 12.2549C12.0795 12.9089 12.6097 13.4391 13.2637 13.4391Z" fill="#1A1A1A"/>
<path d="M8.5269 13.4391C9.18092 13.4391 9.71111 12.9089 9.71111 12.2549C9.71111 11.6009 9.18092 11.0707 8.5269 11.0707C7.87288 11.0707 7.34269 11.6009 7.34269 12.2549C7.34269 12.9089 7.87288 13.4391 8.5269 13.4391Z" fill="#1A1A1A"/>
<path d="M18.0005 13.4391C18.6546 13.4391 19.1848 12.9089 19.1848 12.2549C19.1848 11.6009 18.6546 11.0707 18.0005 11.0707C17.3465 11.0707 16.8163 11.6009 16.8163 12.2549C16.8163 12.9089 17.3465 13.4391 18.0005 13.4391Z" fill="#1A1A1A"/>
</svg>
